<svg id="visual" viewBox="0 0 900 600" width="900" height="600" xmlns="http://www.w3.org/2000/svg" xmlns:xlink="http://www.w3.org/1999/xlink" version="1.1"><path d="M0 439L10 437.3C20 435.7 40 432.3 60 435.8C80 439.3 100 449.7 120 452C140 454.3 160 448.7 180 449C200 449.3 220 455.7 240 453.3C260 451 280 440 300 435.3C320 430.7 340 432.3 360 436C380 439.7 400 445.3 420 449.8C440 454.3 460 457.7 480 460.7C500 463.7 520 466.3 540 465.2C560 464 580 459 600 457.7C620 456.3 640 458.7 660 460.7C680 462.7 700 464.3 720 463C740 461.7 760 457.3 780 453.8C800 450.3 820 447.7 840 443.7C860 439.7 880 434.3 890 431.7L900 429L900 601L890 601C880 601 860 601 840 601C820 601 800 601 780 601C760 601 740 601 720 601C700 601 680 601 660 601C640 601 620 601 600 601C580 601 560 601 540 601C520 601 500 601 480 601C460 601 440 601 420 601C400 601 380 601 360 601C340 601 320 601 300 601C280 601 260 601 240 601C220 601 200 601 180 601C160 601 140 601 120 601C100 601 80 601 60 601C40 601 20 601 10 601L0 601Z" fill="#ffffff"></path><path d="M0 486L10 487.3C20 488.7 40 491.3 60 493.8C80 496.3 100 498.7 120 500C140 501.3 160 501.7 180 502.8C200 504 220 506 240 507.3C260 508.7 280 509.3 300 507.3C320 505.3 340 500.7 360 499.7C380 498.7 400 501.3 420 501C440 500.7 460 497.3 480 494.8C500 492.3 520 490.7 540 491.2C560 491.7 580 494.3 600 494.5C620 494.7 640 492.3 660 494.3C680 496.3 700 502.7 720 503.8C740 505 760 501 780 501.8C800 502.7 820 508.3 840 511C860 513.7 880 513.3 890 513.2L900 513L900 601L890 601C880 601 860 601 840 601C820 601 800 601 780 601C760 601 740 601 720 601C700 601 680 601 660 601C640 601 620 601 600 601C580 601 560 601 540 601C520 601 500 601 480 601C460 601 440 601 420 601C400 601 380 601 360 601C340 601 320 601 300 601C280 601 260 601 240 601C220 601 200 601 180 601C160 601 140 601 120 601C100 601 80 601 60 601C40 601 20 601 10 601L0 601Z" fill="#c9e4f3"></path><path d="M0 540L10 538.5C20 537 40 534 60 536.3C80 538.7 100 546.3 120 548.8C140 551.3 160 548.7 180 548C200 547.3 220 548.7 240 545.2C260 541.7 280 533.3 300 531.3C320 529.3 340 533.7 360 535.2C380 536.7 400 535.3 420 536.2C440 537 460 540 480 541.5C500 543 520 543 540 541C560 539 580 535 600 537.2C620 539.3 640 547.7 660 551.5C680 555.3 700 554.7 720 553.2C740 551.7 760 549.3 780 548.3C800 547.3 820 547.7 840 549.3C860 551 880 554 890 555.5L900 557L900 601L890 601C880 601 860 601 840 601C820 601 800 601 780 601C760 601 740 601 720 601C700 601 680 601 660 601C640 601 620 601 600 601C580 601 560 601 540 601C520 601 500 601 480 601C460 601 440 601 420 601C400 601 380 601 360 601C340 601 320 601 300 601C280 601 260 601 240 601C220 601 200 601 180 601C160 601 140 601 120 601C100 601 80 601 60 601C40 601 20 601 10 601L0 601Z" fill="#8ecae6"></path></svg>