<svg id="visual" viewBox="0 0 1440 450" width="1440" height="450" xmlns="http://www.w3.org/2000/svg" xmlns:xlink="http://www.w3.org/1999/xlink" version="1.1"><path d="M0 357L16 351.5C32 346 64 335 96 334.2C128 333.3 160 342.7 192 345.8C224 349 256 346 288 344.7C320 343.3 352 343.7 384 339.3C416 335 448 326 480 321.5C512 317 544 317 576 322.3C608 327.7 640 338.3 672 342.8C704 347.3 736 345.7 768 341.8C800 338 832 332 864 327.7C896 323.3 928 320.7 960 321.2C992 321.7 1024 325.3 1056 331.2C1088 337 1120 345 1152 348.7C1184 352.3 1216 351.7 1248 350.8C1280 350 1312 349 1344 346.5C1376 344 1408 340 1424 338L1440 336L1440 451L1424 451C1408 451 1376 451 1344 451C1312 451 1280 451 1248 451C1216 451 1184 451 1152 451C1120 451 1088 451 1056 451C1024 451 992 451 960 451C928 451 896 451 864 451C832 451 800 451 768 451C736 451 704 451 672 451C640 451 608 451 576 451C544 451 512 451 480 451C448 451 416 451 384 451C352 451 320 451 288 451C256 451 224 451 192 451C160 451 128 451 96 451C64 451 32 451 16 451L0 451Z" fill="#ffffff"></path><path d="M0 372L16 373.8C32 375.7 64 379.3 96 377C128 374.7 160 366.3 192 364.7C224 363 256 368 288 371.3C320 374.7 352 376.3 384 376C416 375.7 448 373.3 480 371.5C512 369.7 544 368.3 576 368.2C608 368 640 369 672 368.8C704 368.7 736 367.3 768 369.3C800 371.3 832 376.7 864 377.3C896 378 928 374 960 371.8C992 369.7 1024 369.3 1056 368.2C1088 367 1120 365 1152 362.7C1184 360.3 1216 357.7 1248 360.8C1280 364 1312 373 1344 374C1376 375 1408 368 1424 364.5L1440 361L1440 451L1424 451C1408 451 1376 451 1344 451C1312 451 1280 451 1248 451C1216 451 1184 451 1152 451C1120 451 1088 451 1056 451C1024 451 992 451 960 451C928 451 896 451 864 451C832 451 800 451 768 451C736 451 704 451 672 451C640 451 608 451 576 451C544 451 512 451 480 451C448 451 416 451 384 451C352 451 320 451 288 451C256 451 224 451 192 451C160 451 128 451 96 451C64 451 32 451 16 451L0 451Z" fill="#c9e4f3"></path><path d="M0 412L16 408.7C32 405.3 64 398.7 96 397.5C128 396.3 160 400.7 192 404C224 407.3 256 409.7 288 407.3C320 405 352 398 384 398C416 398 448 405 480 406.8C512 408.7 544 405.3 576 404.7C608 404 640 406 672 408.3C704 410.7 736 413.3 768 411C800 408.7 832 401.3 864 400.2C896 399 928 404 960 405C992 406 1024 403 1056 400.8C1088 398.7 1120 397.3 1152 398.5C1184 399.7 1216 403.3 1248 405.7C1280 408 1312 409 1344 409.8C1376 410.7 1408 411.3 1424 411.7L1440 412L1440 451L1424 451C1408 451 1376 451 1344 451C1312 451 1280 451 1248 451C1216 451 1184 451 1152 451C1120 451 1088 451 1056 451C1024 451 992 451 960 451C928 451 896 451 864 451C832 451 800 451 768 451C736 451 704 451 672 451C640 451 608 451 576 451C544 451 512 451 480 451C448 451 416 451 384 451C352 451 320 451 288 451C256 451 224 451 192 451C160 451 128 451 96 451C64 451 32 451 16 451L0 451Z" fill="#8ecae6"></path></svg>